<?xml version="1.0" encoding="UTF-8" standalone="no"?><!DOCTYPE svg PUBLIC "-//W3C//DTD SVG 1.1//EN" "http://www.w3.org/Graphics/SVG/1.1/DTD/svg11.dtd">
<svg width="100%" height="100%" viewBox="0 0 796 796" version="1.1" xmlns="http://www.w3.org/2000/svg" xmlns:xlink="http://www.w3.org/1999/xlink" xml:space="preserve" style="fill-rule:evenodd;clip-rule:evenodd;stroke-linejoin:round;stroke-miterlimit:1.41421;">
   <path d="M532.6,299.9c-10.8,0 -20.4,4.6 -27.2,12.1l-0.1,-0.1l-108.2,118l-108.4,-118l-0.1,0.1c-6.7,-7.4 -16.4,-12.1 -27.2,-12.1c-20.4,0 -37,16.7 -37,37c0,9.7 3.7,18.3 9.8,24.8l-0.1,0.1l135.5,147.9c7.1,7.6 16.8,12 27.3,12c10.5,0 20.2,-4.3 27.2,-12l135.7,-147.8l-0.1,-0.1c6,-6.6 9.8,-15.4 9.8,-24.8c0.1,-20.4 -16.6,-37.1 -36.9,-37.1Z" style="fill:#3e3e3e;"/>
</svg>
